/* XPM */
static const char * TypicalX11App_xpm[] = {
"64 64 107 2",
"  	c None",
". 	c #000000",
"+ 	c #010100",
"@ 	c #434300",
"# 	c #929200",
"$ 	c #CDCD00",
"% 	c #E8E800",
"& 	c #FFFF00",
"* 	c #F6F600",
"= 	c #DBDB00",
"- 	c #B9B900",
"; 	c #6B6B00",
"> 	c #1B1B00",
", 	c #7B7B00",
"' 	c #BCBC00",
") 	c #2A2A00",
"! 	c #4C4C00",
"~ 	c #FAFA00",
"{ 	c #B2B200",
"] 	c #606000",
"^ 	c #D8D800",
"/ 	c #050500",
"( 	c #232300",
"_ 	c #B6B600",
": 	c #D6D600",
"< 	c #2D2D00",
"[ 	c #0E0E00",
"} 	c #A7A700",
"| 	c #3F3F00",
"1 	c #F0F000",
"2 	c #676700",
"3 	c #FCFC00",
"4 	c #F7F700",
"5 	c #666600",
"6 	c #080800",
"7 	c #525200",
"8 	c #FEFE00",
"9 	c #0D0D00",
"0 	c #6D6D00",
"a 	c #808000",
"b 	c #2B2B00",
"c 	c #F8F800",
"d 	c #FDFD00",
"e 	c #020200",
"f 	c #CBCB00",
"g 	c #565600",
"h 	c #0B0B00",
"i 	c #B8B800",
"j 	c #1E1E00",
"k 	c #F1F100",
"l 	c #393900",
"m 	c #151500",
"n 	c #888800",
"o 	c #545400",
"p 	c #CCCC00",
"q 	c #121200",
"r 	c #202000",
"s 	c #ECEC00",
"t 	c #828200",
"u 	c #343400",
"v 	c #F2F200",
"w 	c #0C0C00",
"x 	c #4A4A00",
"y 	c #F5F500",
"z 	c #E3E300",
"A 	c #101000",
"B 	c #A8A800",
"C 	c #575700",
"D 	c #9B9B00",
"E 	c #EEEE00",
"F 	c #070700",
"G 	c #949400",
"H 	c #040400",
"I 	c #111100",
"J 	c #C3C300",
"K 	c #414100",
"L 	c #A1A100",
"M 	c #F4F400",
"N 	c #9C9C00",
"O 	c #6E6E00",
"P 	c #C4C400",
"Q 	c #C1C100",
"R 	c #E7E700",
"S 	c #3B3B00",
"T 	c #E9E900",
"U 	c #D0D000",
"V 	c #BBBB00",
"W 	c #D7D700",
"X 	c #C2C200",
"Y 	c #E6E600",
"Z 	c #0F0F00",
"` 	c #DFDF00",
" .	c #E5E500",
"..	c #505000",
"+.	c #686800",
"@.	c #EAEA00",
"#.	c #1A1A00",
"$.	c #7E7E00",
"%.	c #EDED00",
"&.	c #242400",
"*.	c #E0E000",
"=.	c #2E2E00",
"-.	c #7A7A00",
";.	c #373700",
">.	c #313100",
",.	c #747400",
"'.	c #777700",
"                                                        . . . . . . . .                                                         ",
"                                              . . . . . . . . . . . . . . . . . .                                               ",
"                                          . . . . . + @ # $ % & & * = - ; > . . . . . .                                         ",
"                                    . . . . . , * & & & & & & & & & & & & & & & ' ) . . . .                                     ",
"                                . . . . ! ~ & & & & & & & & & & & & & & & & & & & & & { + . . .                                 ",
"                              . . . ] & & & & & & & & & & & & & & & & & & & & & & & & & & ^ / . . .                             ",
"                          . . . ( & & & & & & & & & & & & & & & & & & & & & & & & & & & & & & _ . . .                           ",
"                        . . . : & & & & & & & & & & & & & & & & & & & & & & & & & & & & & & & & & < . . .                       ",
"                      . . [ & & & & & & & & & & & & & & & & & & & & & & & & & & & & & & & & & & & & } . . .                     ",
"                    . . | & & & & & & & & & & & & & & & & & & & & & & & & & & & & & & & & & & & & & & 1 . . .                   ",
"                  . . 2 & & & & & & & & & & & & & & & & & & & & & & & & & & & & & & & & & & & & & & & & 3 . . .                 ",
"                . . 2 & & & & & & & & & & & & & & & & & & & & & & & & & & & & & & & & & & & & & & & & & & & . . .               ",
"              . . | & & & & & & & & & & & & & & & & & & & & & & & & & & & & & & & & & & & & & & & & & & & & 4 . .               ",
"            . . [ & & & & & & & & & & & & & & & & & & & & & & & & & & & & & & & & & & & & & & & & & & & & & & = . .             ",
"            . . & & & & & & & & & & & & & & & & & & & & & & & & & & & & & & & & & & & & & & & & & & & & & & & & 5 . .           ",
"          . . : & & & & & & & & & & & & & & & & & & & & & & & & & & & & & & & & & & & & & & & & & & & & & & & & & 6 .           ",
"        . . ( & & & & & & & & & & & & & & & & & & & & & & & & & & & & & & & & & & & & & & & & & & & & & & & & & & 4 . .         ",
"        . . & & & & & & & & & & & & & & & & & & & & & & & & & & & & & & & & & & & & & & & & & & & & & & & & & & & & 7 . .       ",
"      . . ] & & & & & & & & & & & & & 8 9 . . . 0 & & & & & & & & & & & & & & & a . . b c & & & & & & & & & & & & & & . .       ",
"      . . & & & & & & & & & & & & & d . . . . . . < & & & & & & & & & & & & & e . . . . . f & & & & & & & & & & & & & g . .     ",
"      . ! & & & & & & & & & & & & & h . . . . . . . i & & & & & & & & & & & j . . . . . . . & & & & & & & & & & & & & & . .     ",
"    . . ~ & & & & & & & & & & & & k . . . . . . . . . & & & & & & & & & & * . . . . . . . . l & & & & & & & & & & & & & m .     ",
"    . . & & & & & & & & & & & & & 5 . . . . . . . . n & & & & & & & & & & o . . . . . . . . n & & & & & & & & & & & & & p . .   ",
"  . . , & & & & & & & & & & & & & q . . . . . . n & & & & & & & & & & & & . . . . . . . n & & & & & & & & & & & & & & & & . .   ",
"  . . * & & & & & & & & & & & & & . . . . . . . & & & & & & & & & & & & & . . . . . . . & & & & & & & & & & & & & & & & & 6 .   ",
"  . . & & & & & & & & & & & & & & r . . . . . . n & & s & & & & & & & & & . . . . . . . n & & & & & & & & & & & & & & & & t . . ",
"  . + & & & & & & & & & & & & & & n . . . . . . . . n & & & & & & & & & & u . . . . . . . . n & & & & & & & & & & & & & & v . . ",
"  . @ & & & & & & & & & & & & & & & . . . . . . . . q & & & & & & & & & & p . . . . . . . . w & & & & & & & & & & & & & & & . . ",
". . # & & & & & & & & & & & & & & & x . . . . . . . y & & & & & & & & & & & . . . . . . . . z & & & & & & & & & & & & & & & . . ",
". . $ & & & & & & & & & & & & & & & & A . . . . . B & & & & & & & & & & & & k . . . . . . C & & & & & & & & & & & & & & & & . . ",
". . % & & & & & & & & & & & & & & & & & D . . r E & & & & & & & & & & & & & & c F . . . G & & & & & & & & & & & & & & & & & . . ",
". . & & & & & & & & & & & & & & & & & & & & & & & & & & & & & & & & & & & & & & & & & & & & & & & & & & & & & & & & & & & & H . ",
". . & & & & & & & & & & & & & & & & & & & & & & & & & & & & & & & & & & & & & & & & & & & & & & & & & & & & & & & & & & & & I . ",
". . * & & & & & & & & & & & & & & & & & & & & & & & & & & & & & & & & & & & & & & & & & & & & & & & & & & & & & & & & & & & . . ",
". . = & & & & & & & & & & & & & & & & & & & & & & & & & & & & & & & & & & & & & & & & & & & & & & & & & & & & & & & & & & & . . ",
". . - & & & & & & & & & & & & & & & & & & & & & & & & & & & & & & & & & & & & & & & & & & & & & & & & & & & & & & & & & & & . . ",
"  . ; & & & & & & & & & & & & & & & & & & & & & & & & & & & & & & & & & & & & & & & & & & & & & & & & & & & & & & & & & & & . . ",
"  . > & & & & & & & & & & & & & & & & & & & & & & & & & & & & & & & & & & & & & & & & & & & & & & & & & & & & & & & & & & & . . ",
"  . . & & & & & & & & & & & & & & & & & & & & & & & & & & & & & & & & & & & & & & & & & & & & & & & & & & & & & & & & & & J . . ",
"  . . & & & & & & & & & & & & & & & & & & & & & & & & & & & & & & & & & & & & & & & & & & & & & & & & & & & & & & & & & & K .   ",
"  . . ' & & & & & & & & & & & & & & & & & & & & & & & & & & & & & & & & & & & & & & & & & & & & & & & & & & & & & & & & & . .   ",
"    . ) & & & & & & & & & & & & L & & & & & & & & & & & & & & & & & & & & & & & & & & & & & & L & & & & & & & & & & & & & . .   ",
"    . . & & & & & & & & & & & & D . ~ & & & & & & & & & & & & & & & & & & & & & & & & & & M . N & & & & & & & & & & & & O . .   ",
"    . . { & & & & & & & & & & & D . . P & & & & & & & & & & & & & & & & & & & & & & & & Q . . N & & & & & & & & & & & & . .     ",
"      . + & & & & & & & & & & & R . . . S & & & & & & & & & & & & & & & & & & & & & & o . . . T & & & & & & & & & & & U . .     ",
"      . . ^ & & & & & & & & & & & p . . . . V & & & & & & & & & & & & & & & & & & z . . . . W & & & & & & & & & & & & e .       ",
"        . / & & & & & & & & & & & & f . . . . + X & & & & & & & & & & & & & & Y Z . . . . : & & & & & & & & & & & & ` . .       ",
"        . . _ & & & & & & & & & & & &  .. . . . . . ..Y & & & & & & & & * +.. . . . . . @.& & & & & & & & & & & & & . .         ",
"          . . & & & & & & & & & & & & & 8 / . . . . . . . . + #.m + . . . . . . . . H 8 & & & & & & & & & & & & & $.. .         ",
"          . . < & & & & & & & & & & & & & & 2 . . . . . . . . . . . . . . . . . . g & & & & & & & & & & & & & & * . .           ",
"            . . } & & & & & & & & & & & & & & c [ . . . . . . . . . . . . . . F 1 & & & & & & & & & & & & & & & . . .           ",
"              . . 1 & & & & & & & & & & & & & & & %.&.. . . . . . . . . . m *.& & & & & & & & & & & & & & & & =.. .             ",
"              . . . 3 & & & & & & & & & & & & & & & & & z -.;.m q >.,.W & & & & & & & & & & & & & & & & & & 7 . .               ",
"                . . . & & & & & & & & & & & & & & & & & & & & & & & & & & & & & & & & & & & & & & & & & & '.. .                 ",
"                  . . . 4 & & & & & & & & & & & & & & & & & & & & & & & & & & & & & & & & & & & & & & & 7 . .                   ",
"                    . . . = & & & & & & & & & & & & & & & & & & & & & & & & & & & & & & & & & & & & & =.. .                     ",
"                      . . . 5 & & & & & & & & & & & & & & & & & & & & & & & & & & & & & & & & & & * . . .                       ",
"                          . . 6 4 & & & & & & & & & & & & & & & & & & & & & & & & & & & & & & & $.. . .                         ",
"                            . . . 7 & & & & & & & & & & & & & & & & & & & & & & & & & & & & ` . . . .                           ",
"                                . . . g & & & & & & & & & & & & & & & & & & & & & & & & U e . . .                               ",
"                                  . . . . m p & & & & & & & & & & & & & & & & & & & O . . . .                                   ",
"                                      . . . . . 6 t v & & & & & & & & & & & J K . . . . .                                       ",
"                                            . . . . . . . . . H I . . . . . . . . . .                                           ",
"                                                  . . . . . . . . . . . . . .                                                   "};
